<svg width="3684" height="1964" xmlns="http://www.w3.org/2000/svg" xmlns:xlink="http://www.w3.org/1999/xlink" xml:space="preserve" overflow="hidden"><g transform="translate(-322 -392)"><path d="M1372.43 622.437 1410.77 622.437 1410.16 625.112 1376.16 672.934 1386.45 672.934C1387.97 672.934 1389.18 672.711 1390.08 672.266 1390.99 671.82 1392.04 670.759 1393.24 669.084 1394.44 667.409 1395.53 665.288 1396.5 662.721L1401.81 662.721 1398.57 677.757 1359.91 677.757 1360.48 675.082 1394.48 627.26 1384.59 627.26C1383.45 627.26 1382.59 627.341 1382 627.503 1381.4 627.665 1380.85 627.915 1380.35 628.253 1379.85 628.591 1379.28 629.124 1378.63 629.854 1377.98 630.583 1377.26 631.63 1376.46 632.995 1375.67 634.359 1375.05 635.582 1374.62 636.662L1369.31 636.662Z" fill-rule="evenodd"/><text fill="#000000" fill-opacity="0" font-family="Arial,Arial_MSFontService,sans-serif" font-size="55.3198" x="1359.91" y="670.842">ğ’</text><path d="M1461.84 601.97C1467.63 603.499 1472.09 606.8 1475.2 611.873 1478.3 616.947 1479.86 623.068 1479.86 630.236 1479.86 637.424 1478.31 643.545 1475.21 648.598 1472.11 653.652 1467.65 656.943 1461.84 658.472L1461.12 656.179C1465.71 654.65 1469.12 651.631 1471.35 647.124 1473.59 642.616 1474.7 636.888 1474.7 629.938 1474.7 623.226 1473.59 617.652 1471.37 613.214 1469.14 608.776 1465.7 605.792 1461.03 604.263ZM1435.02 601.97 1435.82 604.263C1431.18 605.792 1427.74 608.776 1425.5 613.214 1423.27 617.652 1422.15 623.226 1422.15 629.938 1422.15 636.888 1423.27 642.616 1425.5 647.124 1427.74 651.631 1431.15 654.65 1435.73 656.179L1435.02 658.472C1429.2 656.943 1424.74 653.652 1421.65 648.598 1418.55 643.545 1417 637.424 1417 630.236 1417 623.068 1418.55 616.947 1421.66 611.873 1424.77 606.8 1429.22 603.499 1435.02 601.97Z" fill-rule="evenodd"/><path d="M1452.52 606.896 1454.66 606.896C1453.43 612.436 1452.3 617.5 1451.28 622.087 1450.26 626.674 1449.14 631.737 1447.93 637.277 1447.65 638.469 1447.45 639.407 1447.33 640.092 1447.21 640.777 1447.15 641.397 1447.15 641.953 1447.15 642.708 1447.31 643.254 1447.62 643.592 1447.92 643.929 1448.4 644.098 1449.03 644.098 1449.39 644.098 1449.75 644.028 1450.1 643.889 1450.46 643.75 1450.84 643.532 1451.23 643.234 1451.63 642.936 1452.07 642.554 1452.56 642.087 1453.05 641.621 1453.6 641.06 1454.21 640.405L1456.15 642.37C1455.14 643.403 1454.22 644.282 1453.39 645.006 1452.57 645.731 1451.79 646.322 1451.04 646.779 1450.3 647.235 1449.56 647.568 1448.84 647.776 1448.11 647.985 1447.33 648.089 1446.5 648.089 1445.74 648.089 1445.06 647.95 1444.46 647.672 1443.85 647.394 1443.33 647.012 1442.89 646.525 1442.46 646.039 1442.12 645.458 1441.88 644.783 1441.64 644.108 1441.52 643.363 1441.52 642.549 1441.52 641.814 1441.6 640.906 1441.75 639.824 1441.9 638.742 1442.13 637.515 1442.45 636.145 1443.3 632.333 1444.15 628.53 1444.99 624.738 1445.84 620.945 1446.53 618.036 1447.06 616.01 1447.54 613.846 1447.78 612.367 1447.78 611.573 1447.78 611.156 1447.73 610.808 1447.62 610.53 1447.51 610.252 1447.31 610.024 1447.02 609.845 1446.73 609.666 1446.34 609.537 1445.84 609.458 1445.35 609.378 1444.7 609.319 1443.91 609.279L1444.32 607.254Z" fill-rule="evenodd"/><text fill="#000000" fill-opacity="0" font-family="Arial,Arial_MSFontService,sans-serif" font-size="41.1929" x="1441.52" y="642.94">ğ‘™</text><path d="M1517.27 659.763 1567.2 659.763 1567.2 665.153 1517.27 665.153ZM1517.27 642.944 1567.2 642.944 1567.2 648.334 1517.27 648.334Z" fill-rule="evenodd"/><text fill="#000000" fill-opacity="0" font-family="Arial,Arial_MSFontService,sans-serif" font-size="22.209" x="1517.27" y="662.377">=</text><path d="M2291.5 424.5C2320.5 424.5 2344 479.121 2344 546.5L2344 546.5C2344 613.879 2367.51 668.5 2396.5 668.5 2367.51 668.5 2344 723.121 2344 790.5L2344 790.5C2344 857.879 2320.5 912.5 2291.5 912.5" stroke="#FF0000" stroke-width="4.58333" stroke-miterlimit="8" fill="none" fill-rule="evenodd"/><path d="M1655.07 428.563 1679.46 428.563 1679.46 432.21 1663.58 432.21 1663.58 520.306 1663.58 528.949 1663.58 612.224 1663.58 621.624 1663.58 704.143 1663.58 713.543 1663.58 796.833 1663.58 805.461 1663.58 893.572 1679.46 893.572 1679.46 897.22 1655.07 897.22 1655.07 805.461 1655.07 713.543 1655.07 621.624 1655.07 528.949 1655.07 520.306ZM2223.69 428.563 2248.08 428.563 2248.08 520.306 2248.08 528.949 2248.08 612.224 2248.08 621.624 2248.08 704.143 2248.08 713.543 2248.08 796.833 2248.08 805.461 2248.08 897.22 2223.69 897.22 2223.69 893.572 2239.57 893.572 2239.57 805.461 2239.57 796.833 2239.57 713.543 2239.57 704.143 2239.57 621.624 2239.57 612.224 2239.57 528.949 2239.57 520.306 2239.57 432.21 2223.69 432.21Z" fill-rule="evenodd"/><path d="M2246.5 943.5C2246.5 972.495 2181.02 996 2100.25 996L2100.25 996C2019.48 996 1954 1019.51 1954 1048.5 1954 1019.51 1888.52 996 1807.75 996L1807.75 996C1726.98 996 1661.5 972.495 1661.5 943.5" stroke="#FF0000" stroke-width="4.58333" stroke-miterlimit="8" fill="none" fill-rule="evenodd"/><text font-family="Calibri,Calibri_MSFontService,sans-serif" font-weight="400" font-size="83" transform="matrix(1 0 0 1 1577.47 1141)">The number of columns</text><text font-family="Calibri,Calibri_MSFontService,sans-serif" font-weight="400" font-size="83" transform="matrix(1 0 0 1 1577.47 1240)">is the number of neurons </text><text font-family="Calibri,Calibri_MSFontService,sans-serif" font-weight="400" font-size="83" transform="matrix(1 0 0 1 1577.47 1347)">in layer </text><path d="M1861.63 1289.21 1864.02 1289.21 1854.05 1334.08C1853.46 1336.75 1853.16 1338.75 1853.16 1340.07 1853.16 1341.15 1853.34 1341.94 1853.69 1342.42 1854.04 1342.91 1854.59 1343.15 1855.35 1343.15 1856.16 1343.15 1857.02 1342.82 1857.94 1342.16 1858.86 1341.5 1860.16 1340.24 1861.83 1338.37L1864.14 1340.64C1861.52 1343.4 1859.38 1345.28 1857.72 1346.29 1856.06 1347.31 1854.2 1347.81 1852.15 1347.81 1850.39 1347.81 1848.99 1347.17 1847.93 1345.89 1846.88 1344.61 1846.35 1342.96 1846.35 1340.96 1846.35 1339.15 1846.73 1336.53 1847.49 1333.1L1854.74 1300.64C1855.06 1299.21 1855.29 1298.07 1855.43 1297.22 1855.56 1296.36 1855.63 1295.57 1855.63 1294.84 1855.63 1294.03 1855.48 1293.42 1855.19 1293 1854.89 1292.58 1854.46 1292.28 1853.91 1292.09 1853.36 1291.9 1852.36 1291.76 1850.93 1291.68L1851.42 1289.58Z" fill-rule="evenodd"/><text fill="#000000" fill-opacity="0" font-family="Arial,Arial_MSFontService,sans-serif" font-size="58.6025" x="1846.35" y="1340.49">ğ‘™</text><path d="M1876.04 1337.76 1884.15 1337.76 1884.15 1347.17 1876.04 1347.17ZM1876.04 1310.57 1884.15 1310.57 1884.15 1320.05 1876.04 1320.05Z" fill-rule="evenodd"/><text fill="#000000" fill-opacity="0" font-family="Arial,Arial_MSFontService,sans-serif" font-size="36.5962" x="1876.04" y="1342.59">:</text><path d="M1922.6 1307.73C1924.3 1307.73 1925.64 1308.29 1926.63 1309.41 1927.61 1310.54 1928.11 1312 1928.11 1313.81 1928.11 1315.24 1927.78 1316.84 1927.13 1318.59L1927.62 1318.76C1930.27 1315.03 1932.79 1312.26 1935.18 1310.47 1937.57 1308.67 1940.04 1307.77 1942.58 1307.77 1945.09 1307.77 1947.02 1308.5 1948.37 1309.94 1949.72 1311.39 1950.4 1313.39 1950.4 1315.96 1950.4 1317.66 1950.01 1320.08 1949.22 1323.21L1946.59 1333.83C1945.86 1336.78 1945.49 1338.86 1945.49 1340.07 1945.49 1341.15 1945.67 1341.94 1946.02 1342.42 1946.37 1342.91 1946.93 1343.15 1947.68 1343.15 1948.49 1343.15 1949.36 1342.82 1950.28 1342.16 1951.19 1341.5 1952.49 1340.24 1954.17 1338.37L1956.48 1340.64C1954.15 1343.13 1952.13 1344.94 1950.4 1346.09 1948.67 1347.24 1946.7 1347.81 1944.48 1347.81 1942.72 1347.81 1941.32 1347.19 1940.27 1345.93 1939.21 1344.67 1938.69 1343.07 1938.69 1341.13 1938.69 1339.37 1939.13 1336.79 1940.02 1333.39L1941.81 1326.38C1942.45 1323.84 1942.88 1321.96 1943.08 1320.74 1943.28 1319.53 1943.39 1318.54 1943.39 1317.78 1943.39 1315.92 1943.08 1314.57 1942.45 1313.75 1941.83 1312.93 1940.82 1312.51 1939.41 1312.51 1938.28 1312.51 1937.06 1312.97 1935.75 1313.87 1934.44 1314.78 1933.05 1316.14 1931.57 1317.97 1930.1 1319.79 1928.92 1321.56 1928.03 1323.27 1927.13 1324.99 1926.41 1327.1 1925.84 1329.62L1921.99 1347.17 1914.98 1347.17 1920.89 1321.47C1921.49 1318.88 1921.79 1316.88 1921.79 1315.47 1921.79 1314.39 1921.61 1313.61 1921.26 1313.12 1920.91 1312.64 1920.35 1312.39 1919.6 1312.39 1918.76 1312.39 1917.87 1312.74 1916.94 1313.43 1916.01 1314.12 1914.73 1315.37 1913.11 1317.18L1910.8 1314.91C1913.29 1312.31 1915.35 1310.47 1917 1309.37 1918.65 1308.28 1920.52 1307.73 1922.6 1307.73Z" fill-rule="evenodd"/><text fill="#000000" fill-opacity="0" font-family="Arial,Arial_MSFontService,sans-serif" font-size="40.0815" x="1910.8" y="1342.8">ğ‘›</text><path d="M2009 1271.38C2014.8 1272.91 2019.25 1276.21 2022.36 1281.28 2025.47 1286.35 2027.02 1292.48 2027.02 1299.64 2027.02 1306.83 2025.47 1312.95 2022.37 1318.01 2019.28 1323.06 2014.82 1326.35 2009 1327.88L2008.29 1325.59C2012.87 1324.06 2016.28 1321.04 2018.52 1316.53 2020.75 1312.02 2021.87 1306.3 2021.87 1299.35 2021.87 1292.63 2020.76 1287.06 2018.53 1282.62 2016.31 1278.18 2012.86 1275.2 2008.2 1273.67ZM1982.18 1271.38 1982.99 1273.67C1978.34 1275.2 1974.9 1278.18 1972.67 1282.62 1970.43 1287.06 1969.32 1292.63 1969.32 1299.35 1969.32 1306.3 1970.43 1312.02 1972.67 1316.53 1974.9 1321.04 1978.31 1324.06 1982.9 1325.59L1982.18 1327.88C1976.37 1326.35 1971.91 1323.06 1968.81 1318.01 1965.71 1312.95 1964.16 1306.83 1964.16 1299.64 1964.16 1292.48 1965.72 1286.35 1968.83 1281.28 1971.93 1276.21 1976.39 1272.91 1982.18 1271.38Z" fill-rule="evenodd"/><path d="M1999.68 1276.3 2001.82 1276.3C2000.59 1281.84 1999.47 1286.91 1998.44 1291.5 1997.42 1296.08 1996.3 1301.15 1995.09 1306.69 1994.82 1307.88 1994.62 1308.82 1994.5 1309.5 1994.38 1310.19 1994.32 1310.81 1994.32 1311.36 1994.32 1312.12 1994.47 1312.66 1994.78 1313 1995.09 1313.34 1995.56 1313.51 1996.2 1313.51 1996.55 1313.51 1996.91 1313.44 1997.27 1313.3 1997.62 1313.16 1998 1312.94 1998.4 1312.64 1998.8 1312.34 1999.24 1311.96 1999.72 1311.5 2000.21 1311.03 2000.76 1310.47 2001.38 1309.81L2003.31 1311.78C2002.3 1312.81 2001.38 1313.69 2000.56 1314.41 1999.73 1315.14 1998.95 1315.73 1998.21 1316.19 1997.46 1316.64 1996.73 1316.98 1996 1317.18 1995.28 1317.39 1994.5 1317.5 1993.66 1317.5 1992.91 1317.5 1992.23 1317.36 1991.62 1317.08 1991.02 1316.8 1990.5 1316.42 1990.06 1315.93 1989.62 1315.45 1989.29 1314.87 1989.05 1314.19 1988.81 1313.52 1988.69 1312.77 1988.69 1311.96 1988.69 1311.22 1988.76 1310.31 1988.91 1309.23 1989.06 1308.15 1989.29 1306.92 1989.61 1305.55 1990.47 1301.74 1991.32 1297.94 1992.16 1294.15 1993 1290.35 1993.69 1287.44 1994.23 1285.42 1994.71 1283.25 1994.94 1281.78 1994.94 1280.98 1994.94 1280.56 1994.89 1280.22 1994.78 1279.94 1994.67 1279.66 1994.47 1279.43 1994.18 1279.25 1993.9 1279.07 1993.5 1278.95 1993.01 1278.87 1992.51 1278.79 1991.87 1278.73 1991.07 1278.69L1991.49 1276.66Z" fill-rule="evenodd"/><text fill="#000000" fill-opacity="0" font-family="Arial,Arial_MSFontService,sans-serif" font-size="41.1929" x="1988.69" y="1312.35">ğ‘™</text><text font-family="Calibri,Calibri_MSFontService,sans-serif" font-weight="400" font-size="83" transform="matrix(1 0 0 1 2428.9 618)">The number of rows</text><text font-family="Calibri,Calibri_MSFontService,sans-serif" font-weight="400" font-size="83" transform="matrix(1 0 0 1 2428.9 717)">is the number of </text><text font-family="Calibri,Calibri_MSFontService,sans-serif" font-weight="700" font-size="83" text-decoration="underline" transform="matrix(1 0 0 1 3002.97 717)">training samples</text><path d="M2683.8 1785.71 2722.14 1785.71 2721.53 1788.38 2687.53 1836.21 2697.82 1836.21C2699.34 1836.21 2700.55 1835.98 2701.45 1835.54 2702.36 1835.09 2703.41 1834.03 2704.61 1832.36 2705.82 1830.68 2706.9 1828.56 2707.88 1825.99L2713.18 1825.99 2709.94 1841.03 2671.28 1841.03 2671.85 1838.35 2705.85 1790.53 2695.96 1790.53C2694.83 1790.53 2693.96 1790.61 2693.37 1790.78 2692.77 1790.94 2692.22 1791.19 2691.73 1791.53 2691.23 1791.86 2690.65 1792.4 2690 1793.13 2689.35 1793.86 2688.63 1794.9 2687.83 1796.27 2687.04 1797.63 2686.42 1798.85 2685.99 1799.94L2680.68 1799.94Z" fill-rule="evenodd"/><text fill="#000000" fill-opacity="0" font-family="Arial,Arial_MSFontService,sans-serif" font-size="55.3198" x="2671.28" y="1834.11">ğ’</text><path d="M2773.21 1765.24C2779.01 1766.77 2783.46 1770.07 2786.57 1775.15 2789.67 1780.22 2791.23 1786.34 2791.23 1793.51 2791.23 1800.7 2789.68 1806.82 2786.58 1811.87 2783.48 1816.92 2779.03 1820.22 2773.21 1821.74L2772.49 1819.45C2777.08 1817.92 2780.49 1814.9 2782.72 1810.4 2784.96 1805.89 2786.07 1800.16 2786.07 1793.21 2786.07 1786.5 2784.96 1780.92 2782.74 1776.49 2780.52 1772.05 2777.07 1769.06 2772.4 1767.54ZM2746.39 1765.24 2747.19 1767.54C2742.55 1769.06 2739.11 1772.05 2736.87 1776.49 2734.64 1780.92 2733.52 1786.5 2733.52 1793.21 2733.52 1800.16 2734.64 1805.89 2736.87 1810.4 2739.11 1814.9 2742.52 1817.92 2747.11 1819.45L2746.39 1821.74C2740.57 1820.22 2736.11 1816.92 2733.02 1811.87 2729.92 1806.82 2728.37 1800.7 2728.37 1793.51 2728.37 1786.34 2729.92 1780.22 2733.03 1775.15 2736.14 1770.07 2740.59 1766.77 2746.39 1765.24Z" fill-rule="evenodd"/><path d="M2763.89 1770.17 2766.03 1770.17C2764.8 1775.71 2763.67 1780.77 2762.65 1785.36 2761.63 1789.95 2760.51 1795.01 2759.3 1800.55 2759.02 1801.74 2758.82 1802.68 2758.7 1803.36 2758.58 1804.05 2758.53 1804.67 2758.53 1805.23 2758.53 1805.98 2758.68 1806.53 2758.99 1806.86 2759.29 1807.2 2759.77 1807.37 2760.4 1807.37 2760.76 1807.37 2761.12 1807.3 2761.47 1807.16 2761.83 1807.02 2762.21 1806.8 2762.61 1806.51 2763 1806.21 2763.44 1805.83 2763.93 1805.36 2764.42 1804.89 2764.97 1804.33 2765.58 1803.68L2767.52 1805.64C2766.51 1806.68 2765.59 1807.55 2764.77 1808.28 2763.94 1809 2763.16 1809.59 2762.41 1810.05 2761.67 1810.51 2760.93 1810.84 2760.21 1811.05 2759.48 1811.26 2758.7 1811.36 2757.87 1811.36 2757.12 1811.36 2756.44 1811.22 2755.83 1810.94 2755.22 1810.67 2754.7 1810.28 2754.27 1809.8 2753.83 1809.31 2753.49 1808.73 2753.25 1808.06 2753.02 1807.38 2752.9 1806.64 2752.9 1805.82 2752.9 1805.09 2752.97 1804.18 2753.12 1803.1 2753.27 1802.01 2753.5 1800.79 2753.82 1799.42 2754.67 1795.61 2755.52 1791.8 2756.37 1788.01 2757.21 1784.22 2757.9 1781.31 2758.44 1779.28 2758.91 1777.12 2759.15 1775.64 2759.15 1774.85 2759.15 1774.43 2759.1 1774.08 2758.99 1773.8 2758.88 1773.52 2758.68 1773.3 2758.39 1773.12 2758.1 1772.94 2757.71 1772.81 2757.21 1772.73 2756.72 1772.65 2756.07 1772.59 2755.28 1772.55L2755.7 1770.53Z" fill-rule="evenodd"/><text fill="#000000" fill-opacity="0" font-family="Arial,Arial_MSFontService,sans-serif" font-size="41.1929" x="2752.9" y="1806.21">ğ‘™</text><path d="M2828.64 1823.04 2878.57 1823.04 2878.57 1828.43 2828.64 1828.43ZM2828.64 1806.22 2878.57 1806.22 2878.57 1811.61 2828.64 1811.61Z" fill-rule="evenodd"/><text fill="#000000" fill-opacity="0" font-family="Arial,Arial_MSFontService,sans-serif" font-size="22.209" x="2828.64" y="1825.65">=</text><path d="M2966.44 1591.84 2990.83 1591.84 2990.83 1595.48 2974.95 1595.48 2974.95 1683.58 2974.95 1692.22 2974.95 1775.5 2974.95 1784.9 2974.95 1867.42 2974.95 1876.82 2974.95 1960.11 2974.95 1968.73 2974.95 2056.84 2990.83 2056.84 2990.83 2060.49 2966.44 2060.49 2966.44 1968.73 2966.44 1876.82 2966.44 1784.9 2966.44 1692.22 2966.44 1683.58ZM3535.06 1591.84 3559.45 1591.84 3559.45 1683.58 3559.45 1692.22 3559.45 1775.5 3559.45 1784.9 3559.45 1867.42 3559.45 1876.82 3559.45 1960.11 3559.45 1968.73 3559.45 2060.49 3535.06 2060.49 3535.06 2056.84 3550.94 2056.84 3550.94 1968.73 3550.94 1960.11 3550.94 1876.82 3550.94 1867.42 3550.94 1784.9 3550.94 1775.5 3550.94 1692.22 3550.94 1683.58 3550.94 1595.48 3535.06 1595.48Z" fill-rule="evenodd"/><path d="M3251.15 1628.92 3251.15 2015.73 3248.85 2015.73 3248.85 1628.92ZM3236.25 1633.5 3250 1606 3263.75 1633.5ZM3263.75 2011.14 3250 2038.64 3236.25 2011.14Z" fill="#FF0000"/><text font-family="Calibri,Calibri_MSFontService,sans-serif" font-weight="400" font-size="83" transform="matrix(1 0 0 1 2813.98 2183)">The values of the </text><path d="M3427.99 2124.64 3430.34 2124.64 3422.4 2160.02 3423.7 2160.02C3425.72 2160.02 3428 2159.14 3430.53 2157.37 3433.05 2155.6 3435.07 2153.96 3436.59 2152.44 3438.1 2150.93 3438.86 2149.47 3438.86 2148.07 3438.86 2146.74 3437.94 2146 3436.1 2145.84L3436.55 2143.85 3449.68 2143.85 3450.45 2145.84C3448.2 2147.86 3445.83 2149.85 3443.31 2151.8L3433.26 2159.58 3437.23 2174.21C3437.56 2175.45 3437.85 2176.35 3438.11 2176.9 3438.36 2177.46 3438.66 2177.87 3439 2178.14 3439.34 2178.41 3439.79 2178.54 3440.36 2178.54 3441.06 2178.54 3441.9 2178.17 3442.87 2177.41 3443.84 2176.65 3444.95 2175.56 3446.19 2174.13L3448.5 2176.4C3446.07 2178.96 3444.06 2180.75 3442.46 2181.75 3440.87 2182.74 3439.33 2183.24 3437.84 2183.24 3436.01 2183.24 3434.55 2182.72 3433.47 2181.68 3432.38 2180.64 3431.53 2178.91 3430.91 2176.48L3428.24 2165.94C3427.97 2164.89 3427.7 2164.16 3427.43 2163.75 3427.16 2163.35 3426.85 2163.08 3426.49 2162.94 3426.14 2162.81 3425.52 2162.74 3424.63 2162.74L3421.83 2162.74 3417.62 2182.6 3410.61 2182.6 3421.02 2136.27C3421.38 2134.71 3421.62 2133.48 3421.77 2132.61 3421.92 2131.73 3422 2130.95 3422 2130.28 3422 2129.14 3421.65 2128.34 3420.96 2127.88 3420.27 2127.43 3419.04 2127.17 3417.25 2127.11L3417.74 2125.01Z" fill-rule="evenodd"/><text fill="#000000" fill-opacity="0" font-family="Arial,Arial_MSFontService,sans-serif" font-size="58.6025" x="3410.61" y="2175.92">ğ‘˜</text><text font-family="Calibri,Calibri_MSFontService,sans-serif" font-weight="400" font-size="83" transform="matrix(1 0 0 1 3454.55 2183)">th</text><text font-family="Calibri,Calibri_MSFontService,sans-serif" font-weight="400" font-size="83" transform="matrix(1 0 0 1 3544.49 2183)">receptor in </text><text font-family="Calibri,Calibri_MSFontService,sans-serif" font-weight="400" font-size="83" transform="matrix(1 0 0 1 2813.98 2282)">layer </text><path d="M3016.79 2223.64 3019.18 2223.64 3009.21 2268.51C3008.61 2271.18 3008.32 2273.18 3008.32 2274.5 3008.32 2275.58 3008.49 2276.37 3008.84 2276.85 3009.19 2277.34 3009.75 2277.58 3010.5 2277.58 3011.32 2277.58 3012.18 2277.25 3013.1 2276.59 3014.02 2275.93 3015.31 2274.67 3016.99 2272.8L3019.3 2275.07C3016.68 2277.83 3014.54 2279.71 3012.88 2280.72 3011.21 2281.74 3009.36 2282.24 3007.3 2282.24 3005.55 2282.24 3004.14 2281.6 3003.09 2280.32 3002.03 2279.04 3001.51 2277.39 3001.51 2275.4 3001.51 2273.59 3001.89 2270.96 3002.64 2267.53L3009.9 2235.07C3010.22 2233.64 3010.45 2232.5 3010.59 2231.65 3010.72 2230.8 3010.79 2230 3010.79 2229.28 3010.79 2228.46 3010.64 2227.85 3010.34 2227.43 3010.05 2227.01 3009.62 2226.71 3009.07 2226.52 3008.51 2226.33 3007.52 2226.2 3006.09 2226.11L3006.57 2224.01Z" fill-rule="evenodd"/><text fill="#000000" fill-opacity="0" font-family="Arial,Arial_MSFontService,sans-serif" font-size="58.6025" x="3001.51" y="2274.92">ğ‘™</text><text font-family="Calibri,Calibri_MSFontService,sans-serif" font-weight="400" font-size="83" transform="matrix(1 0 0 1 3043.22 2282)">for all the training samples.</text><path d="M378.653 1787.65 416.991 1787.65 416.384 1790.33 382.381 1838.15 392.675 1838.15C394.188 1838.15 395.397 1837.93 396.302 1837.48 397.207 1837.04 398.261 1835.98 399.463 1834.3 400.666 1832.63 401.753 1830.51 402.726 1827.94L408.035 1827.94 404.793 1842.97 366.13 1842.97 366.697 1840.3 400.699 1792.48 390.811 1792.48C389.676 1792.48 388.811 1792.56 388.217 1792.72 387.623 1792.88 387.076 1793.13 386.576 1793.47 386.076 1793.81 385.502 1794.34 384.853 1795.07 384.205 1795.8 383.482 1796.85 382.685 1798.21 381.888 1799.58 381.273 1800.8 380.841 1801.88L375.532 1801.88Z" fill-rule="evenodd"/><text fill="#000000" fill-opacity="0" font-family="Arial,Arial_MSFontService,sans-serif" font-size="55.3198" x="366.13" y="1836.06">ğ’</text><path d="M468.058 1767.19C473.857 1768.72 478.309 1772.02 481.417 1777.09 484.525 1782.16 486.078 1788.28 486.078 1795.45 486.078 1802.64 484.529 1808.76 481.432 1813.82 478.334 1818.87 473.876 1822.16 468.058 1823.69L467.343 1821.4C471.93 1819.87 475.341 1816.85 477.575 1812.34 479.809 1807.83 480.926 1802.1 480.926 1795.15 480.926 1788.44 479.814 1782.87 477.59 1778.43 475.366 1773.99 471.92 1771.01 467.254 1769.48ZM441.241 1767.19 442.045 1769.48C437.399 1771.01 433.959 1773.99 431.725 1778.43 429.491 1782.87 428.374 1788.44 428.374 1795.15 428.374 1802.1 429.491 1807.83 431.725 1812.34 433.959 1816.85 437.369 1819.87 441.956 1821.4L441.241 1823.69C435.423 1822.16 430.965 1818.87 427.868 1813.82 424.77 1808.76 423.221 1802.64 423.221 1795.45 423.221 1788.28 424.775 1782.16 427.882 1777.09 430.99 1772.02 435.443 1768.72 441.241 1767.19Z" fill-rule="evenodd"/><path d="M458.737 1772.11 460.882 1772.11C459.651 1777.65 458.524 1782.72 457.501 1787.3 456.479 1791.89 455.362 1796.95 454.15 1802.49 453.872 1803.69 453.674 1804.62 453.555 1805.31 453.436 1805.99 453.376 1806.61 453.376 1807.17 453.376 1807.92 453.53 1808.47 453.838 1808.81 454.145 1809.15 454.617 1809.31 455.252 1809.31 455.61 1809.31 455.967 1809.25 456.325 1809.11 456.682 1808.97 457.059 1808.75 457.457 1808.45 457.854 1808.15 458.296 1807.77 458.782 1807.3 459.268 1806.84 459.82 1806.28 460.435 1805.62L462.371 1807.59C461.358 1808.62 460.44 1809.5 459.616 1810.22 458.792 1810.95 458.008 1811.54 457.263 1812 456.518 1812.45 455.784 1812.78 455.059 1812.99 454.334 1813.2 453.555 1813.31 452.721 1813.31 451.966 1813.31 451.286 1813.17 450.68 1812.89 450.075 1812.61 449.554 1812.23 449.117 1811.74 448.68 1811.26 448.342 1810.67 448.104 1810 447.866 1809.32 447.747 1808.58 447.747 1807.77 447.747 1807.03 447.821 1806.12 447.97 1805.04 448.119 1803.96 448.352 1802.73 448.67 1801.36 449.524 1797.55 450.373 1793.75 451.217 1789.95 452.06 1786.16 452.751 1783.25 453.287 1781.23 453.763 1779.06 454.001 1777.58 454.001 1776.79 454.001 1776.37 453.947 1776.02 453.838 1775.75 453.728 1775.47 453.53 1775.24 453.242 1775.06 452.954 1774.88 452.562 1774.75 452.065 1774.67 451.569 1774.6 450.924 1774.54 450.129 1774.5L450.546 1772.47Z" fill-rule="evenodd"/><text fill="#000000" fill-opacity="0" font-family="Arial,Arial_MSFontService,sans-serif" font-size="41.1929" x="447.747" y="1808.16">ğ‘™</text><path d="M523.494 1824.98 573.424 1824.98 573.424 1830.37 523.494 1830.37ZM523.494 1808.16 573.424 1808.16 573.424 1813.55 523.494 1813.55Z" fill-rule="evenodd"/><text fill="#000000" fill-opacity="0" font-family="Arial,Arial_MSFontService,sans-serif" font-size="22.209" x="523.494" y="1827.59">=</text><path d="M661.288 1593.78 685.685 1593.78 685.685 1597.43 669.799 1597.43 669.799 1685.52 669.799 1694.17 669.799 1777.44 669.799 1786.84 669.799 1869.36 669.799 1878.76 669.799 1962.05 669.799 1970.68 669.799 2058.79 685.685 2058.79 685.685 2062.44 661.288 2062.44 661.288 1970.68 661.288 1878.76 661.288 1786.84 661.288 1694.17 661.288 1685.52ZM1229.91 1593.78 1254.3 1593.78 1254.3 1685.52 1254.3 1694.17 1254.3 1777.44 1254.3 1786.84 1254.3 1869.36 1254.3 1878.76 1254.3 1962.05 1254.3 1970.68 1254.3 2062.44 1229.91 2062.44 1229.91 2058.79 1245.79 2058.79 1245.79 1970.68 1245.79 1962.05 1245.79 1878.76 1245.79 1869.36 1245.79 1786.84 1245.79 1777.44 1245.79 1694.17 1245.79 1685.52 1245.79 1597.43 1229.91 1597.43Z" fill-rule="evenodd"/><path d="M22.9168-1.14582 513.333-1.14549 513.333 1.14618 22.9168 1.14585ZM27.5 13.75 0 0 27.5-13.75ZM508.75-13.7497 536.25 0.000360892 508.75 13.7503Z" fill="#FF0000" transform="matrix(-1 0 0 1 1228.25 1824)"/><text font-family="Calibri,Calibri_MSFontService,sans-serif" font-weight="400" font-size="83" transform="matrix(1 0 0 1 508.83 2185)">The value of all receptors in layer </text><path d="M1655.51 2126.59 1657.9 2126.59 1647.93 2171.45C1647.33 2174.12 1647.04 2176.12 1647.04 2177.45 1647.04 2178.53 1647.21 2179.31 1647.56 2179.8 1647.91 2180.28 1648.47 2180.53 1649.22 2180.53 1650.03 2180.53 1650.9 2180.2 1651.82 2179.54 1652.74 2178.87 1654.03 2177.61 1655.71 2175.75L1658.02 2178.02C1655.4 2180.77 1653.26 2182.66 1651.59 2183.67 1649.93 2184.68 1648.08 2185.19 1646.02 2185.19 1644.27 2185.19 1642.86 2184.55 1641.81 2183.26 1640.75 2181.98 1640.23 2180.34 1640.23 2178.34 1640.23 2176.53 1640.61 2173.91 1641.36 2170.48L1648.62 2138.01C1648.94 2136.58 1649.17 2135.44 1649.31 2134.59 1649.44 2133.74 1649.51 2132.95 1649.51 2132.22 1649.51 2131.41 1649.36 2130.79 1649.06 2130.38 1648.76 2129.96 1648.34 2129.65 1647.79 2129.46 1647.23 2129.27 1646.24 2129.14 1644.81 2129.06L1645.29 2126.95Z" fill-rule="evenodd"/><text fill="#000000" fill-opacity="0" font-family="Arial,Arial_MSFontService,sans-serif" font-size="58.6025" x="1640.23" y="2177.86">ğ‘™</text><text font-family="Calibri,Calibri_MSFontService,sans-serif" font-weight="400" font-size="83" transform="matrix(1 0 0 1 1681.93 2185)">for </text><text font-family="Calibri,Calibri_MSFontService,sans-serif" font-weight="400" font-size="83" transform="matrix(1 0 0 1 508.83 2284)">t</text><text font-family="Calibri,Calibri_MSFontService,sans-serif" font-weight="400" font-size="83" transform="matrix(1 0 0 1 536.33 2284)">he </text><path d="M656.847 2244.43 659.238 2244.43 653.402 2270.45C652.808 2273.1 652.51 2275.1 652.51 2276.45 652.51 2277.53 652.686 2278.31 653.037 2278.8 653.389 2279.28 653.942 2279.53 654.699 2279.53 655.509 2279.53 656.374 2279.2 657.293 2278.54 658.211 2277.87 659.508 2276.61 661.183 2274.75L663.493 2277.02C660.846 2279.8 658.698 2281.69 657.049 2282.69 655.401 2283.69 653.551 2284.19 651.497 2284.19 649.741 2284.19 648.336 2283.55 647.282 2282.26 646.229 2280.98 645.702 2279.34 645.702 2277.34 645.702 2275.29 646.08 2272.67 646.837 2269.48L649.876 2256.22C650.498 2253.52 650.808 2251.5 650.808 2250.15 650.808 2248.93 650.518 2248.11 649.937 2247.67 649.356 2247.24 648.215 2247 646.512 2246.94L646.958 2244.8ZM655.753 2228.91 662.926 2228.91 661.062 2236.77 653.888 2236.77Z" fill-rule="evenodd"/><text fill="#000000" fill-opacity="0" font-family="Arial,Arial_MSFontService,sans-serif" font-size="55.2793" x="645.702" y="2277.28">ğ‘–</text><text font-family="Calibri,Calibri_MSFontService,sans-serif" font-weight="400" font-size="83" transform="matrix(1 0 0 1 668.995 2284)">th training sample.</text></g></svg>