<svg width="3511" height="1964" xmlns="http://www.w3.org/2000/svg" xmlns:xlink="http://www.w3.org/1999/xlink" xml:space="preserve" overflow="hidden"><g transform="translate(-322 -392)"><path d="M1364.66 622.437 1385.41 622.437 1384.81 625.112C1383.97 625.22 1383.28 625.409 1382.74 625.68 1382.2 625.95 1381.76 626.321 1381.42 626.794 1381.08 627.267 1380.83 627.854 1380.67 628.557 1380.51 629.259 1380.42 629.908 1380.41 630.502 1380.4 631.097 1380.37 632.799 1380.35 635.609L1380.19 650.847C1380.16 653.522 1380.02 657.831 1379.78 663.775L1380.31 663.775C1381.23 661.695 1383.2 657.629 1386.22 651.576L1400.85 622.437 1409.73 622.437 1409.77 648.983 1409.81 652.59C1409.81 656.372 1409.72 660.101 1409.53 663.775L1410.05 663.775C1411.32 661.127 1413.61 656.548 1416.9 650.036L1422.94 638.243C1424.13 635.946 1425.01 634.069 1425.58 632.61 1426.14 631.151 1426.43 629.935 1426.43 628.962 1426.43 628.152 1426.33 627.503 1426.14 627.017 1425.95 626.531 1425.6 626.125 1425.09 625.801 1424.58 625.477 1423.87 625.247 1422.98 625.112L1423.59 622.437 1440.81 622.437 1440.21 625.112C1439.32 625.274 1438.52 625.598 1437.84 626.085 1437.15 626.571 1436.49 627.22 1435.87 628.03 1435.25 628.841 1434.64 629.766 1434.05 630.806 1433.45 631.846 1432.66 633.299 1431.66 635.163L1408.43 678.041 1398.71 678.041 1398.63 651.941 1398.63 645.052C1398.63 643.295 1398.64 641.458 1398.67 639.54L1398.14 639.54C1397.25 641.539 1396.36 643.403 1395.46 645.133L1378.93 678.041 1369.2 678.041 1368.39 634.92C1368.34 632.353 1368.14 630.408 1367.8 629.084 1367.47 627.76 1367.01 626.807 1366.45 626.227 1365.88 625.646 1365.08 625.274 1364.06 625.112Z" fill-rule="evenodd"/><text fill="#000000" fill-opacity="0" font-family="Arial,Arial_MSFontService,sans-serif" font-size="55.6035" x="1364.06" y="671.09">ğ‘¾</text><path d="M1491.35 601.97C1497.15 603.499 1501.6 606.8 1504.71 611.873 1507.82 616.947 1509.37 623.068 1509.37 630.236 1509.37 637.424 1507.82 643.545 1504.73 648.598 1501.63 653.652 1497.17 656.943 1491.35 658.472L1490.64 656.179C1495.23 654.65 1498.64 651.631 1500.87 647.124 1503.1 642.616 1504.22 636.888 1504.22 629.938 1504.22 623.226 1503.11 617.652 1500.88 613.214 1498.66 608.776 1495.22 605.792 1490.55 604.263ZM1464.54 601.97 1465.34 604.263C1460.69 605.792 1457.25 608.776 1455.02 613.214 1452.79 617.652 1451.67 623.226 1451.67 629.938 1451.67 636.888 1452.79 642.616 1455.02 647.124 1457.25 651.631 1460.66 654.65 1465.25 656.179L1464.54 658.472C1458.72 656.943 1454.26 653.652 1451.16 648.598 1448.06 643.545 1446.52 637.424 1446.52 630.236 1446.52 623.068 1448.07 616.947 1451.18 611.873 1454.28 606.8 1458.74 603.499 1464.54 601.97Z" fill-rule="evenodd"/><path d="M1482.03 606.896 1484.18 606.896C1482.95 612.436 1481.82 617.5 1480.8 622.087 1479.77 626.674 1478.66 631.737 1477.45 637.277 1477.17 638.469 1476.97 639.407 1476.85 640.092 1476.73 640.777 1476.67 641.397 1476.67 641.953 1476.67 642.708 1476.82 643.254 1477.13 643.592 1477.44 643.929 1477.91 644.098 1478.55 644.098 1478.9 644.098 1479.26 644.028 1479.62 643.889 1479.98 643.75 1480.35 643.532 1480.75 643.234 1481.15 642.936 1481.59 642.554 1482.08 642.087 1482.56 641.621 1483.11 641.06 1483.73 640.405L1485.67 642.37C1484.65 643.403 1483.73 644.282 1482.91 645.006 1482.09 645.731 1481.3 646.322 1480.56 646.779 1479.81 647.235 1479.08 647.568 1478.35 647.776 1477.63 647.985 1476.85 648.089 1476.02 648.089 1475.26 648.089 1474.58 647.95 1473.98 647.672 1473.37 647.394 1472.85 647.012 1472.41 646.525 1471.97 646.039 1471.64 645.458 1471.4 644.783 1471.16 644.108 1471.04 643.363 1471.04 642.549 1471.04 641.814 1471.12 640.906 1471.26 639.824 1471.41 638.742 1471.65 637.515 1471.96 636.145 1472.82 632.333 1473.67 628.53 1474.51 624.738 1475.36 620.945 1476.05 618.036 1476.58 616.01 1477.06 613.846 1477.3 612.367 1477.3 611.573 1477.3 611.156 1477.24 610.808 1477.13 610.53 1477.02 610.252 1476.82 610.024 1476.54 609.845 1476.25 609.666 1475.86 609.537 1475.36 609.458 1474.86 609.378 1474.22 609.319 1473.42 609.279L1473.84 607.254Z" fill-rule="evenodd"/><text fill="#000000" fill-opacity="0" font-family="Arial,Arial_MSFontService,sans-serif" font-size="41.1929" x="1471.04" y="642.94">ğ‘™</text><path d="M1546.79 659.763 1596.72 659.763 1596.72 665.153 1546.79 665.153ZM1546.79 642.944 1596.72 642.944 1596.72 648.334 1546.79 648.334Z" fill-rule="evenodd"/><text fill="#000000" fill-opacity="0" font-family="Arial,Arial_MSFontService,sans-serif" font-size="22.209" x="1546.79" y="662.377">=</text><path d="M2291.5 424.5C2320.5 424.5 2344 479.121 2344 546.5L2344 546.5C2344 613.879 2367.51 668.5 2396.5 668.5 2367.51 668.5 2344 723.121 2344 790.5L2344 790.5C2344 857.879 2320.5 912.5 2291.5 912.5" stroke="#FF0000" stroke-width="4.58333" stroke-miterlimit="8" fill="none" fill-rule="evenodd"/><path d="M1655.07 428.563 1679.46 428.563 1679.46 432.21 1663.58 432.21 1663.58 520.306 1663.58 528.949 1663.58 612.224 1663.58 621.624 1663.58 704.143 1663.58 713.543 1663.58 796.833 1663.58 805.461 1663.58 893.572 1679.46 893.572 1679.46 897.22 1655.07 897.22 1655.07 805.461 1655.07 713.543 1655.07 621.624 1655.07 528.949 1655.07 520.306ZM2223.69 428.563 2248.08 428.563 2248.08 520.306 2248.08 528.949 2248.08 612.224 2248.08 621.624 2248.08 704.143 2248.08 713.543 2248.08 796.833 2248.08 805.461 2248.08 897.22 2223.69 897.22 2223.69 893.572 2239.57 893.572 2239.57 805.461 2239.57 796.833 2239.57 713.543 2239.57 704.143 2239.57 621.624 2239.57 612.224 2239.57 528.949 2239.57 520.306 2239.57 432.21 2223.69 432.21Z" fill-rule="evenodd"/><path d="M2246.5 943.5C2246.5 972.495 2181.02 996 2100.25 996L2100.25 996C2019.48 996 1954 1019.51 1954 1048.5 1954 1019.51 1888.52 996 1807.75 996L1807.75 996C1726.98 996 1661.5 972.495 1661.5 943.5" stroke="#FF0000" stroke-width="4.58333" stroke-miterlimit="8" fill="none" fill-rule="evenodd"/><text font-family="Calibri,Calibri_MSFontService,sans-serif" font-weight="400" font-size="83" transform="matrix(1 0 0 1 1577.47 1141)">The number of columns</text><text font-family="Calibri,Calibri_MSFontService,sans-serif" font-weight="400" font-size="83" transform="matrix(1 0 0 1 1577.47 1240)">is the number of neurons </text><text font-family="Calibri,Calibri_MSFontService,sans-serif" font-weight="400" font-size="83" transform="matrix(1 0 0 1 1577.47 1339)">in layer </text><path d="M1861.63 1281.21 1864.02 1281.21 1854.05 1326.08C1853.46 1328.75 1853.16 1330.75 1853.16 1332.08 1853.16 1333.16 1853.34 1333.94 1853.69 1334.43 1854.04 1334.91 1854.59 1335.16 1855.35 1335.16 1856.16 1335.16 1857.02 1334.82 1857.94 1334.16 1858.86 1333.5 1860.16 1332.24 1861.83 1330.37L1864.14 1332.64C1861.52 1335.4 1859.38 1337.28 1857.72 1338.3 1856.06 1339.31 1854.2 1339.82 1852.15 1339.82 1850.39 1339.82 1848.99 1339.17 1847.93 1337.89 1846.88 1336.61 1846.35 1334.97 1846.35 1332.97 1846.35 1331.16 1846.73 1328.54 1847.49 1325.1L1854.74 1292.64C1855.06 1291.21 1855.29 1290.07 1855.43 1289.22 1855.56 1288.37 1855.63 1287.58 1855.63 1286.85 1855.63 1286.04 1855.48 1285.42 1855.19 1285 1854.89 1284.58 1854.46 1284.28 1853.91 1284.09 1853.36 1283.9 1852.36 1283.77 1850.93 1283.69L1851.42 1281.58Z" fill-rule="evenodd"/><text fill="#000000" fill-opacity="0" font-family="Arial,Arial_MSFontService,sans-serif" font-size="58.6025" x="1846.35" y="1332.49">ğ‘™</text><text font-family="Calibri,Calibri_MSFontService,sans-serif" font-weight="400" font-size="83" transform="matrix(1 0 0 1 2428.9 618)">The number of rows</text><text font-family="Calibri,Calibri_MSFontService,sans-serif" font-weight="400" font-size="83" transform="matrix(1 0 0 1 2428.9 717)">is the number of neurons </text><text font-family="Calibri,Calibri_MSFontService,sans-serif" font-weight="400" font-size="83" transform="matrix(1 0 0 1 2428.9 816)">in layer </text><path d="M2713.07 757.998 2715.46 757.998 2705.49 802.862C2704.89 805.536 2704.6 807.536 2704.6 808.86 2704.6 809.94 2704.77 810.724 2705.12 811.21 2705.47 811.697 2706.03 811.94 2706.78 811.94 2707.59 811.94 2708.46 811.609 2709.38 810.947 2710.3 810.285 2711.59 809.022 2713.27 807.158L2715.58 809.427C2712.96 812.183 2710.82 814.068 2709.16 815.081 2707.49 816.094 2705.64 816.6 2703.58 816.6 2701.83 816.6 2700.42 815.959 2699.37 814.675 2698.31 813.392 2697.79 811.751 2697.79 809.751 2697.79 807.941 2698.17 805.32 2698.92 801.889L2706.18 769.427C2706.5 767.995 2706.73 766.853 2706.87 766.002 2707 765.151 2707.07 764.361 2707.07 763.631 2707.07 762.821 2706.92 762.206 2706.62 761.787 2706.32 761.368 2705.9 761.065 2705.35 760.875 2704.79 760.686 2703.8 760.551 2702.37 760.47L2702.85 758.363Z" fill-rule="evenodd"/><text fill="#000000" fill-opacity="0" font-family="Arial,Arial_MSFontService,sans-serif" font-size="58.6025" x="2697.79" y="809.275">ğ‘™</text><path d="M2744.96 789.528 2794.89 789.528 2794.89 794.918 2744.96 794.918Z" fill-rule="evenodd"/><text fill="#000000" fill-opacity="0" font-family="Arial,Arial_MSFontService,sans-serif" font-size="5.39014" x="2744.96" y="794.245">âˆ’</text><path d="M2845.31 759.984 2847.54 759.984C2847.38 762.578 2847.3 766.171 2847.3 770.764L2847.3 805.374C2847.3 806.941 2847.38 808.123 2847.56 808.921 2847.74 809.718 2848.05 810.366 2848.49 810.866 2848.94 811.366 2849.58 811.757 2850.42 812.041 2851.25 812.325 2852.31 812.541 2853.58 812.69 2854.85 812.838 2856.52 812.94 2858.6 812.994L2858.6 815.952 2828.65 815.952 2828.65 812.994C2831.65 812.858 2833.79 812.676 2835.08 812.446 2836.36 812.217 2837.34 811.872 2838.02 811.413 2838.69 810.954 2839.18 810.305 2839.49 809.468 2839.81 808.63 2839.96 807.266 2839.96 805.374L2839.96 772.507C2839.96 771.426 2839.77 770.636 2839.39 770.136 2839.02 769.636 2838.46 769.386 2837.73 769.386 2836.87 769.386 2835.64 769.832 2834.04 770.724 2832.45 771.615 2830.48 772.844 2828.13 774.411L2826.34 771.291Z" fill-rule="evenodd"/><text fill="#000000" fill-opacity="0" font-family="Arial,Arial_MSFontService,sans-serif" font-size="55.9683" x="2826.34" y="808.956">1</text><path d="M2676.03 1785.71 2696.78 1785.71 2696.18 1788.38C2695.34 1788.49 2694.65 1788.68 2694.11 1788.95 2693.57 1789.22 2693.13 1789.59 2692.79 1790.07 2692.46 1790.54 2692.21 1791.13 2692.04 1791.83 2691.88 1792.53 2691.79 1793.18 2691.78 1793.77 2691.77 1794.37 2691.75 1796.07 2691.72 1798.88L2691.56 1814.12C2691.53 1816.79 2691.39 1821.1 2691.15 1827.05L2691.68 1827.05C2692.6 1824.97 2694.57 1820.9 2697.6 1814.85L2712.23 1785.71 2721.1 1785.71 2721.14 1812.26 2721.18 1815.86C2721.18 1819.64 2721.09 1823.37 2720.9 1827.05L2721.43 1827.05C2722.7 1824.4 2724.98 1819.82 2728.27 1813.31L2734.31 1801.52C2735.5 1799.22 2736.38 1797.34 2736.95 1795.88 2737.51 1794.42 2737.8 1793.21 2737.8 1792.23 2737.8 1791.42 2737.7 1790.78 2737.51 1790.29 2737.33 1789.8 2736.97 1789.4 2736.46 1789.07 2735.95 1788.75 2735.25 1788.52 2734.35 1788.38L2734.96 1785.71 2752.19 1785.71 2751.58 1788.38C2750.69 1788.55 2749.9 1788.87 2749.21 1789.36 2748.52 1789.84 2747.86 1790.49 2747.24 1791.3 2746.62 1792.11 2746.01 1793.04 2745.42 1794.08 2744.82 1795.12 2744.03 1796.57 2743.03 1798.44L2719.8 1841.31 2710.08 1841.31 2710 1815.21 2710 1808.32C2710 1806.57 2710.01 1804.73 2710.04 1802.81L2709.51 1802.81C2708.62 1804.81 2707.73 1806.68 2706.84 1808.41L2690.3 1841.31 2680.57 1841.31 2679.76 1798.19C2679.71 1795.63 2679.51 1793.68 2679.18 1792.36 2678.84 1791.03 2678.39 1790.08 2677.82 1789.5 2677.25 1788.92 2676.45 1788.55 2675.43 1788.38Z" fill-rule="evenodd"/><text fill="#000000" fill-opacity="0" font-family="Arial,Arial_MSFontService,sans-serif" font-size="55.6035" x="2675.43" y="1834.36">ğ‘¾</text><path d="M2802.72 1765.24C2808.52 1766.77 2812.98 1770.07 2816.08 1775.15 2819.19 1780.22 2820.74 1786.34 2820.74 1793.51 2820.74 1800.7 2819.2 1806.82 2816.1 1811.87 2813 1816.92 2808.54 1820.22 2802.72 1821.74L2802.01 1819.45C2806.6 1817.92 2810.01 1814.9 2812.24 1810.4 2814.47 1805.89 2815.59 1800.16 2815.59 1793.21 2815.59 1786.5 2814.48 1780.92 2812.26 1776.49 2810.03 1772.05 2806.59 1769.06 2801.92 1767.54ZM2775.91 1765.24 2776.71 1767.54C2772.06 1769.06 2768.62 1772.05 2766.39 1776.49 2764.16 1780.92 2763.04 1786.5 2763.04 1793.21 2763.04 1800.16 2764.16 1805.89 2766.39 1810.4 2768.62 1814.9 2772.04 1817.92 2776.62 1819.45L2775.91 1821.74C2770.09 1820.22 2765.63 1816.92 2762.53 1811.87 2759.44 1806.82 2757.89 1800.7 2757.89 1793.51 2757.89 1786.34 2759.44 1780.22 2762.55 1775.15 2765.66 1770.07 2770.11 1766.77 2775.91 1765.24Z" fill-rule="evenodd"/><path d="M2793.4 1770.17 2795.55 1770.17C2794.32 1775.71 2793.19 1780.77 2792.17 1785.36 2791.14 1789.95 2790.03 1795.01 2788.82 1800.55 2788.54 1801.74 2788.34 1802.68 2788.22 1803.36 2788.1 1804.05 2788.04 1804.67 2788.04 1805.23 2788.04 1805.98 2788.2 1806.53 2788.5 1806.86 2788.81 1807.2 2789.28 1807.37 2789.92 1807.37 2790.28 1807.37 2790.63 1807.3 2790.99 1807.16 2791.35 1807.02 2791.73 1806.8 2792.12 1806.51 2792.52 1806.21 2792.96 1805.83 2793.45 1805.36 2793.93 1804.89 2794.49 1804.33 2795.1 1803.68L2797.04 1805.64C2796.02 1806.68 2795.11 1807.55 2794.28 1808.28 2793.46 1809 2792.67 1809.59 2791.93 1810.05 2791.18 1810.51 2790.45 1810.84 2789.73 1811.05 2789 1811.26 2788.22 1811.36 2787.39 1811.36 2786.63 1811.36 2785.95 1811.22 2785.35 1810.94 2784.74 1810.67 2784.22 1810.28 2783.78 1809.8 2783.35 1809.31 2783.01 1808.73 2782.77 1808.06 2782.53 1807.38 2782.41 1806.64 2782.41 1805.82 2782.41 1805.09 2782.49 1804.18 2782.64 1803.1 2782.79 1802.01 2783.02 1800.79 2783.34 1799.42 2784.19 1795.61 2785.04 1791.8 2785.88 1788.01 2786.73 1784.22 2787.42 1781.31 2787.95 1779.28 2788.43 1777.12 2788.67 1775.64 2788.67 1774.85 2788.67 1774.43 2788.61 1774.08 2788.5 1773.8 2788.39 1773.52 2788.2 1773.3 2787.91 1773.12 2787.62 1772.94 2787.23 1772.81 2786.73 1772.73 2786.24 1772.65 2785.59 1772.59 2784.8 1772.55L2785.21 1770.53Z" fill-rule="evenodd"/><text fill="#000000" fill-opacity="0" font-family="Arial,Arial_MSFontService,sans-serif" font-size="41.1929" x="2782.41" y="1806.21">ğ‘™</text><path d="M2858.16 1823.04 2908.09 1823.04 2908.09 1828.43 2858.16 1828.43ZM2858.16 1806.22 2908.09 1806.22 2908.09 1811.61 2858.16 1811.61Z" fill-rule="evenodd"/><text fill="#000000" fill-opacity="0" font-family="Arial,Arial_MSFontService,sans-serif" font-size="22.209" x="2858.16" y="1825.65">=</text><path d="M2966.44 1591.84 2990.83 1591.84 2990.83 1595.48 2974.95 1595.48 2974.95 1683.58 2974.95 1692.22 2974.95 1775.5 2974.95 1784.9 2974.95 1867.42 2974.95 1876.82 2974.95 1960.11 2974.95 1968.73 2974.95 2056.84 2990.83 2056.84 2990.83 2060.49 2966.44 2060.49 2966.44 1968.73 2966.44 1876.82 2966.44 1784.9 2966.44 1692.22 2966.44 1683.58ZM3535.06 1591.84 3559.45 1591.84 3559.45 1683.58 3559.45 1692.22 3559.45 1775.5 3559.45 1784.9 3559.45 1867.42 3559.45 1876.82 3559.45 1960.11 3559.45 1968.73 3559.45 2060.49 3535.06 2060.49 3535.06 2056.84 3550.94 2056.84 3550.94 1968.73 3550.94 1960.11 3550.94 1876.82 3550.94 1867.42 3550.94 1784.9 3550.94 1775.5 3550.94 1692.22 3550.94 1683.58 3550.94 1595.48 3535.06 1595.48Z" fill-rule="evenodd"/><path d="M3251.15 1628.92 3251.15 2015.73 3248.85 2015.73 3248.85 1628.92ZM3236.25 1633.5 3250 1606 3263.75 1633.5ZM3263.75 2011.14 3250 2038.64 3236.25 2011.14Z" fill="#FF0000"/><text font-family="Calibri,Calibri_MSFontService,sans-serif" font-weight="400" font-size="83" transform="matrix(1 0 0 1 2813.98 2183)">Weights arriving at a neuron </text><text font-family="Calibri,Calibri_MSFontService,sans-serif" font-weight="400" font-size="83" transform="matrix(1 0 0 1 2813.98 2282)">in layer </text><path d="M3098.14 2223.64 3100.53 2223.64 3090.56 2268.51C3089.97 2271.18 3089.67 2273.18 3089.67 2274.5 3089.67 2275.58 3089.85 2276.37 3090.2 2276.85 3090.55 2277.34 3091.1 2277.58 3091.86 2277.58 3092.67 2277.58 3093.53 2277.25 3094.45 2276.59 3095.37 2275.93 3096.67 2274.67 3098.34 2272.8L3100.65 2275.07C3098.03 2277.83 3095.89 2279.71 3094.23 2280.72 3092.57 2281.74 3090.71 2282.24 3088.66 2282.24 3086.9 2282.24 3085.5 2281.6 3084.44 2280.32 3083.39 2279.04 3082.86 2277.39 3082.86 2275.4 3082.86 2273.59 3083.24 2270.96 3084 2267.53L3091.25 2235.07C3091.58 2233.64 3091.8 2232.5 3091.94 2231.65 3092.07 2230.8 3092.14 2230 3092.14 2229.28 3092.14 2228.46 3091.99 2227.85 3091.7 2227.43 3091.4 2227.01 3090.97 2226.71 3090.42 2226.52 3089.87 2226.33 3088.87 2226.2 3087.44 2226.11L3087.93 2224.01Z" fill-rule="evenodd"/><text fill="#000000" fill-opacity="0" font-family="Arial,Arial_MSFontService,sans-serif" font-size="58.6025" x="3082.86" y="2274.92">ğ‘™</text><path d="M370.886 1787.65 391.636 1787.65 391.028 1790.33C390.19 1790.44 389.501 1790.63 388.961 1790.9 388.42 1791.17 387.981 1791.54 387.644 1792.01 387.306 1792.48 387.056 1793.07 386.894 1793.77 386.732 1794.48 386.644 1795.12 386.63 1795.72 386.617 1796.31 386.597 1798.02 386.57 1800.83L386.408 1816.06C386.381 1818.74 386.245 1823.05 386.002 1828.99L386.529 1828.99C387.448 1826.91 389.42 1822.85 392.446 1816.79L407.076 1787.65 415.952 1787.65 415.992 1814.2 416.033 1817.81C416.033 1821.59 415.938 1825.32 415.749 1828.99L416.276 1828.99C417.546 1826.34 419.829 1821.76 423.125 1815.25L429.164 1803.46C430.353 1801.16 431.231 1799.29 431.798 1797.83 432.366 1796.37 432.649 1795.15 432.649 1794.18 432.649 1793.37 432.555 1792.72 432.366 1792.23 432.176 1791.75 431.825 1791.34 431.312 1791.02 430.798 1790.69 430.096 1790.46 429.204 1790.33L429.812 1787.65 447.036 1787.65 446.429 1790.33C445.537 1790.49 444.747 1790.82 444.058 1791.3 443.369 1791.79 442.714 1792.44 442.092 1793.25 441.471 1794.06 440.863 1794.98 440.268 1796.02 439.674 1797.06 438.877 1798.52 437.877 1800.38L414.655 1843.26 404.929 1843.26 404.847 1817.16 404.847 1810.27C404.847 1808.51 404.861 1806.67 404.888 1804.76L404.361 1804.76C403.47 1806.76 402.578 1808.62 401.686 1810.35L385.151 1843.26 375.425 1843.26 374.614 1800.14C374.56 1797.57 374.364 1795.62 374.026 1794.3 373.689 1792.98 373.236 1792.02 372.669 1791.44 372.101 1790.86 371.304 1790.49 370.278 1790.33Z" fill-rule="evenodd"/><text fill="#000000" fill-opacity="0" font-family="Arial,Arial_MSFontService,sans-serif" font-size="55.6035" x="370.278" y="1836.31">ğ‘¾</text><path d="M497.575 1767.19C503.373 1768.72 507.826 1772.02 510.934 1777.09 514.041 1782.16 515.595 1788.28 515.595 1795.45 515.595 1802.64 514.046 1808.76 510.948 1813.82 507.851 1818.87 503.393 1822.16 497.575 1823.69L496.86 1821.4C501.447 1819.87 504.857 1816.85 507.091 1812.34 509.325 1807.83 510.442 1802.1 510.442 1795.15 510.442 1788.44 509.33 1782.87 507.106 1778.43 504.882 1773.99 501.437 1771.01 496.771 1769.48ZM470.758 1767.19 471.562 1769.48C466.915 1771.01 463.475 1773.99 461.241 1778.43 459.008 1782.87 457.891 1788.44 457.891 1795.15 457.891 1802.1 459.008 1807.83 461.241 1812.34 463.475 1816.85 466.886 1819.87 471.473 1821.4L470.758 1823.69C464.94 1822.16 460.482 1818.87 457.384 1813.82 454.287 1808.76 452.738 1802.64 452.738 1795.45 452.738 1788.28 454.292 1782.16 457.399 1777.09 460.507 1772.02 464.96 1768.72 470.758 1767.19Z" fill-rule="evenodd"/><path d="M488.254 1772.11 490.399 1772.11C489.167 1777.65 488.041 1782.72 487.018 1787.3 485.995 1791.89 484.878 1796.95 483.667 1802.49 483.389 1803.69 483.191 1804.62 483.071 1805.31 482.952 1805.99 482.893 1806.61 482.893 1807.17 482.893 1807.92 483.047 1808.47 483.354 1808.81 483.662 1809.15 484.134 1809.31 484.769 1809.31 485.127 1809.31 485.484 1809.25 485.841 1809.11 486.199 1808.97 486.576 1808.75 486.973 1808.45 487.37 1808.15 487.812 1807.77 488.299 1807.3 488.785 1806.84 489.336 1806.28 489.952 1805.62L491.888 1807.59C490.875 1808.62 489.957 1809.5 489.133 1810.22 488.309 1810.95 487.524 1811.54 486.78 1812 486.035 1812.45 485.3 1812.78 484.576 1812.99 483.851 1813.2 483.071 1813.31 482.237 1813.31 481.483 1813.31 480.803 1813.17 480.197 1812.89 479.591 1812.61 479.07 1812.23 478.633 1811.74 478.197 1811.26 477.859 1810.67 477.621 1810 477.382 1809.32 477.263 1808.58 477.263 1807.77 477.263 1807.03 477.338 1806.12 477.487 1805.04 477.636 1803.96 477.869 1802.73 478.187 1801.36 479.04 1797.55 479.889 1793.75 480.733 1789.95 481.577 1786.16 482.267 1783.25 482.803 1781.23 483.28 1779.06 483.518 1777.58 483.518 1776.79 483.518 1776.37 483.464 1776.02 483.354 1775.75 483.245 1775.47 483.047 1775.24 482.759 1775.06 482.471 1774.88 482.079 1774.75 481.582 1774.67 481.086 1774.6 480.44 1774.54 479.646 1774.5L480.063 1772.47Z" fill-rule="evenodd"/><text fill="#000000" fill-opacity="0" font-family="Arial,Arial_MSFontService,sans-serif" font-size="41.1929" x="477.263" y="1808.16">ğ‘™</text><path d="M553.011 1824.98 602.941 1824.98 602.941 1830.37 553.011 1830.37ZM553.011 1808.16 602.941 1808.16 602.941 1813.55 553.011 1813.55Z" fill-rule="evenodd"/><text fill="#000000" fill-opacity="0" font-family="Arial,Arial_MSFontService,sans-serif" font-size="22.209" x="553.011" y="1827.59">=</text><path d="M661.288 1593.78 685.685 1593.78 685.685 1597.43 669.799 1597.43 669.799 1685.52 669.799 1694.17 669.799 1777.44 669.799 1786.84 669.799 1869.36 669.799 1878.76 669.799 1962.05 669.799 1970.68 669.799 2058.79 685.685 2058.79 685.685 2062.44 661.288 2062.44 661.288 1970.68 661.288 1878.76 661.288 1786.84 661.288 1694.17 661.288 1685.52ZM1229.91 1593.78 1254.3 1593.78 1254.3 1685.52 1254.3 1694.17 1254.3 1777.44 1254.3 1786.84 1254.3 1869.36 1254.3 1878.76 1254.3 1962.05 1254.3 1970.68 1254.3 2062.44 1229.91 2062.44 1229.91 2058.79 1245.79 2058.79 1245.79 1970.68 1245.79 1962.05 1245.79 1878.76 1245.79 1869.36 1245.79 1786.84 1245.79 1777.44 1245.79 1694.17 1245.79 1685.52 1245.79 1597.43 1229.91 1597.43Z" fill-rule="evenodd"/><path d="M22.9168-1.14582 513.333-1.14549 513.333 1.14618 22.9168 1.14585ZM27.5 13.75 0 0 27.5-13.75ZM508.75-13.7497 536.25 0.000360892 508.75 13.7503Z" fill="#FF0000" transform="matrix(-1 0 0 1 1228.25 1824)"/><text font-family="Calibri,Calibri_MSFontService,sans-serif" font-weight="400" font-size="83" transform="matrix(1 0 0 1 508.83 2185)">Weights leaving a neuron </text><text font-family="Calibri,Calibri_MSFontService,sans-serif" font-weight="400" font-size="83" transform="matrix(1 0 0 1 508.83 2284)">in layer </text><path d="M792.991 2225.59 795.382 2225.59 785.413 2270.45C784.818 2273.12 784.521 2275.12 784.521 2276.45 784.521 2277.53 784.697 2278.31 785.048 2278.8 785.399 2279.28 785.953 2279.53 786.71 2279.53 787.52 2279.53 788.385 2279.2 789.303 2278.54 790.222 2277.87 791.519 2276.61 793.194 2274.75L795.504 2277.02C792.883 2279.77 790.742 2281.66 789.08 2282.67 787.419 2283.68 785.561 2284.19 783.508 2284.19 781.752 2284.19 780.347 2283.55 779.293 2282.26 778.239 2280.98 777.712 2279.34 777.712 2277.34 777.712 2275.53 778.091 2272.91 778.847 2269.48L786.102 2237.01C786.426 2235.58 786.656 2234.44 786.791 2233.59 786.926 2232.74 786.993 2231.95 786.993 2231.22 786.993 2230.41 786.845 2229.79 786.547 2229.38 786.25 2228.96 785.825 2228.65 785.271 2228.46 784.717 2228.27 783.724 2228.14 782.292 2228.06L782.778 2225.95Z" fill-rule="evenodd"/><text fill="#000000" fill-opacity="0" font-family="Arial,Arial_MSFontService,sans-serif" font-size="58.6025" x="777.712" y="2276.86">ğ‘™</text><path d="M824.885 2257.12 874.815 2257.12 874.815 2262.51 824.885 2262.51Z" fill-rule="evenodd"/><text fill="#000000" fill-opacity="0" font-family="Arial,Arial_MSFontService,sans-serif" font-size="5.39014" x="824.885" y="2261.83">âˆ’</text><path d="M925.236 2227.57 927.465 2227.57C927.303 2230.17 927.222 2233.76 927.222 2238.35L927.222 2272.96C927.222 2274.53 927.309 2275.71 927.485 2276.51 927.661 2277.31 927.971 2277.95 928.417 2278.45 928.863 2278.95 929.505 2279.35 930.342 2279.63 931.18 2279.91 932.233 2280.13 933.503 2280.28 934.773 2280.43 936.448 2280.53 938.529 2280.58L938.529 2283.54 908.579 2283.54 908.579 2280.58C911.578 2280.45 913.719 2280.26 915.003 2280.03 916.286 2279.8 917.265 2279.46 917.941 2279 918.616 2278.54 919.109 2277.89 919.42 2277.06 919.731 2276.22 919.886 2274.85 919.886 2272.96L919.886 2240.09C919.886 2239.01 919.697 2238.22 919.319 2237.72 918.94 2237.22 918.387 2236.97 917.657 2236.97 916.793 2236.97 915.563 2237.42 913.969 2238.31 912.375 2239.2 910.403 2240.43 908.052 2242L906.269 2238.88Z" fill-rule="evenodd"/><text fill="#000000" fill-opacity="0" font-family="Arial,Arial_MSFontService,sans-serif" font-size="55.9683" x="906.269" y="2276.54">1</text></g></svg>