<?xml version="1.0" encoding="UTF-8" standalone="no"?>
<!-- Creator: CorelDRAW -->

<svg
   xmlns:dc="http://purl.org/dc/elements/1.1/"
   xmlns:cc="http://creativecommons.org/ns#"
   xmlns:rdf="http://www.w3.org/1999/02/22-rdf-syntax-ns#"
   xmlns:svg="http://www.w3.org/2000/svg"
   xmlns="http://www.w3.org/2000/svg"
   xmlns:sodipodi="http://sodipodi.sourceforge.net/DTD/sodipodi-0.dtd"
   xmlns:inkscape="http://www.inkscape.org/namespaces/inkscape"
   xml:space="preserve"
   width="210mm"
   height="297mm"
   style="shape-rendering:geometricPrecision; text-rendering:geometricPrecision; image-rendering:optimizeQuality; fill-rule:evenodd; clip-rule:evenodd"
   viewBox="0 0 210 297"
   id="svg2"
   version="1.1"
   inkscape:version="0.48.3.1 r9886"
   sodipodi:docname="pinguin.svg"><metadata
   id="metadata56"><rdf:RDF><cc:Work
       rdf:about=""><dc:format>image/svg+xml</dc:format><dc:type
         rdf:resource="http://purl.org/dc/dcmitype/StillImage" /></cc:Work></rdf:RDF></metadata><sodipodi:namedview
   pagecolor="#ffffff"
   bordercolor="#666666"
   borderopacity="1"
   objecttolerance="10"
   gridtolerance="10"
   guidetolerance="10"
   inkscape:pageopacity="0"
   inkscape:pageshadow="2"
   inkscape:window-width="1366"
   inkscape:window-height="716"
   id="namedview54"
   showgrid="false"
   inkscape:zoom="0.24991396"
   inkscape:cx="372.04724"
   inkscape:cy="526.18109"
   inkscape:window-x="-8"
   inkscape:window-y="-8"
   inkscape:window-maximized="1"
   inkscape:current-layer="svg2" />
 <defs
   id="defs4">
  <style
   type="text/css"
   id="style6">
   
    .str5 {stroke:#332C2B;stroke-width:0.2}
    .str2 {stroke:black;stroke-width:0.2}
    .str3 {stroke:#332C2B;stroke-width:0.5292;stroke-linecap:round;stroke-linejoin:round}
    .str4 {stroke:#474443;stroke-width:0.5292;stroke-linecap:round;stroke-linejoin:round}
    .str1 {stroke:black;stroke-width:0.5292}
    .str0 {stroke:black;stroke-width:0.5292;stroke-linecap:round;stroke-linejoin:round}
    .fil9 {fill:none}
    .fil10 {fill:#332C2B}
    .fil8 {fill:#474443}
    .fil7 {fill:#E62129}
    .fil3 {fill:#EEEEEF}
    .fil0 {fill:#F08519}
    .fil5 {fill:#FEFEFE}
    .fil4 {fill:black}
    .fil1 {fill:#1A1A1A}
    .fil2 {fill:#333333}
    .fil6 {fill:#CCCCCC}
   
  </style>
 
  
  
  
  
  
  
  
  
  
  
  
  
  
  
  
  
  
  
  
  
  
  
  
 </defs>
 <path
   style="fill:#f08519;stroke:#000000;stroke-width:0.52920002;stroke-linecap:round;stroke-linejoin:round"
   inkscape:connector-curvature="0"
   id="path10"
   d="m 74.856347,217.533 c -13.85,-2.7567 -24.5449,-6.8331 -32.2919,-14.9742 -11.2607,2.8626 -23.4261,5.3527 -30.1603,11.4746 -3.5372002,3.7914 -2.2895,4.5769 2.2492,3.5229 4.8505,-2.7041 9.6176,-4.3642 14.979,-5.4072 -7.22,1.407 -9.3856,2.6807 -15.4295,5.6271 -7.6703002,4.4761 -1.7302,5.8913 2.9675,5.507 3.5115,-0.1901 5.0599,-0.4491 7.7449,-1.7532 3.3888,-3.5769 8.2545,-5.317 13.6004,-6.5544 -5.8394,1.1883 -10.928,3.4596 -14.6709,7.672 -0.6967,1.5139 0.6956,1.7618 2.9611,1.4805 16.2684,-1.5266 32.3202,-3.6328 48.0505,-6.5951 z"
   class="fil0 str0" /><path
   style="fill:#f08519;stroke:#000000;stroke-width:0.52920002;stroke-linecap:round;stroke-linejoin:round"
   inkscape:connector-curvature="0"
   id="path12"
   d="m 95.308947,216.236 c 13.688903,-3.4691 24.158703,-8.093 31.474503,-16.6237 11.3935,2.2765 23.6715,4.1343 30.7131,9.8999 3.7286,3.6033 2.5231,4.4523 -2.064,3.6344 -4.9838,-2.4497 -9.8304,-3.8611 -15.2385,-4.6255 7.2831,1.0318 9.5116,2.1918 15.6998,4.8219 7.8914,4.0735 2.0324,5.7939 -2.6789,5.653 -3.5166,-0.008 -5.0763,-0.1869 -7.8252,-1.3504 -3.5691,-3.3969 -8.5183,-4.8831 -13.921,-5.8424 5.8931,0.8847 11.0922,2.8899 15.048,6.9031 0.774,1.4759 -0.6036,1.7954 -2.8807,1.6316 -16.3256,-0.6834 -32.4647,-1.9568 -48.327103,-4.1019 z"
   class="fil0 str0" /><path
   style="fill:#1a1a1a;stroke:#000000;stroke-width:0.52920002;stroke-linecap:round;stroke-linejoin:round"
   inkscape:connector-curvature="0"
   id="path14"
   d="m 46.193047,118.51 c 5.2044,-15.5234 8.928,-30.7776 14.1323,-46.3009 -8.0202,-9.9111 -14.6818,-21.7633 -20.1893,-35.2641 -2.702,-4.1835 -4.6557,-4.2511 -5.9221,-0.5382 -7.3449,28.9362 2.477,55.7579 11.9791,82.1032 z"
   class="fil1 str0" /><path
   style="fill:#333333;stroke:#000000;stroke-width:0.52920002;stroke-linecap:round;stroke-linejoin:round"
   inkscape:connector-curvature="0"
   id="path16"
   d="m 93.437947,38.9676 c 2.4674,-0.0522 4.9297,-0.3687 7.489003,0.4133 3.3075,1.0106 6.2845,3.7742 8.8644,4.533 0.2921,-3.7173 -2.5465,-9.3386 -8.715,-13.7286 0.5608,1.3459 1.0206,2.6919 1.245,4.0378 -3.759803,-4.5088 -7.725703,-5.4065 -11.844503,-3.634 2.1344,1.1887 3.317,2.3778 3.2976,3.5667 -2.2625,-1.468 -4.3778,-1.3175 -6.4605,-0.8076 4.3549,1.7333 4.4224,3.1821 6.124,5.6194 z"
   class="fil2 str0" /><path
   style="fill:#eeeeef;stroke:#000000;stroke-width:0.52920002"
   inkscape:connector-curvature="0"
   id="path18"
   d="m 46.193047,118.51 c 3.8802,-12.2484 6.4975,-22.1772 10.3776,-34.4256 -7.3255,-7.8201 -15.907,-28.5663 -19.2056,-39.4879 -2.0145,-3.3009 -3.4712,-3.3543 -4.4153,-0.4247 -4.5339,22.8316 4.0039,49.9851 13.2433,74.3382 z"
   class="fil3 str1" /><path
   style="fill:#000000;stroke:#000000;stroke-width:0.52920002;stroke-linecap:round;stroke-linejoin:round"
   inkscape:connector-curvature="0"
   id="path20"
   d="m 193.84895,127.375 c -41.2896,-3.584 -61.1171,-17.4912 -74.0276,-34.7256 1.5314,-10.2386 1.6987,-20.6286 0,-31.2261 -3.5086,-30.9329 -47.680103,-39.9245 -64.202003,17.4974 -6.9373,26.1218 -7.1725,23.5187 -19.7855,49.2619 -13.8685,27.2286 -15.2911,47.5082 -4.9764,67.8358 18.6081,30.4307 67.2428,31.2289 98.116503,4.8458 3.6999,-3.1197 22.6131,-17.1541 25.8422,-38.4944 -17.9389,7.1905 -11.6519,-14.6136 -29.0726,-37.1483 4.9801,6.1914 8.1687,13.5634 10.2159,18.4059 17.9159,2.3578 39.9762,2.4248 56.8127,-10.3302 2.1852,-2.3891 2.8402,-4.4304 1.0768,-5.9222 z"
   class="fil4 str0" /><path
   style="fill:#eeeeef;stroke:#000000;stroke-width:0.52920002"
   inkscape:connector-curvature="0"
   id="path22"
   d="m 136.27495,143.345 c -2.0238,-5.5529 -5.0165,-10.9906 -8.6874,-16.3479 20.9908,5.9659 41.6659,7.2956 62.6571,5.0061 1.7565,0.2413 1.4119,1.4986 0.1378,2.4905 -12.0881,8.1131 -28.3237,12.3562 -54.1075,8.8513 z"
   class="fil3 str1" /><path
   style="fill:#fefefe"
   inkscape:connector-curvature="0"
   id="path24"
   d="m 100.80795,49.8367 c -3.805603,-2.3447 -9.393903,2.8406 -11.626203,12.274 -2.2322,9.4334 -1.8973,14.9395 5.117,20.2267 7.014203,5.2873 8.858403,-1.6092 10.145303,-12.0048 1.2868,-10.3956 0.1695,-18.1512 -3.6361,-20.4959 z"
   class="fil5" /><ellipse
   style="fill:#000000;stroke:#000000;stroke-width:0.2"
   sodipodi:ry="5.5969"
   sodipodi:rx="0.53420001"
   sodipodi:cy="0"
   sodipodi:cx="0"
   cy="0"
   cx="0"
   id="ellipse26"
   ry="5.5969"
   rx="0.53420001"
   transform="matrix(-5.95389,-1.81663,-0.0512981,1.98113,98.448947,67.1712)"
   class="fil4 str2" /><path
   style="fill:#fefefe"
   inkscape:connector-curvature="0"
   id="path28"
   d="m 80.247747,46.6054 c 3.6052,0 4.6871,6.1164 2.4165,13.6614 -2.2707,7.5449 -4.0653,10.9894 -10.6393,13.6613 -6.5741,2.6719 -5.6067,-5.2886 -2.4163,-13.6613 3.1903,-8.3728 7.034,-13.6614 10.6391,-13.6614 z"
   class="fil5" /><ellipse
   style="fill:#000000;stroke:#000000;stroke-width:0.52920002"
   sodipodi:ry="5.5969"
   sodipodi:rx="0.53420001"
   sodipodi:cy="0"
   sodipodi:cx="0"
   cy="0"
   cx="0"
   id="ellipse30"
   ry="5.5969"
   rx="0.53420001"
   transform="matrix(5.12958,0,-0.423219,1.74349,77.119447,61.5455)"
   class="fil4 str1" /><ellipse
   style="fill:#000000;stroke:#000000;stroke-width:0.52920002"
   sodipodi:ry="5.5969"
   sodipodi:rx="0.53420001"
   sodipodi:cy="0"
   sodipodi:cx="0"
   cy="0"
   cx="0"
   id="ellipse32"
   ry="5.5969"
   rx="0.53420001"
   transform="matrix(5.12958,0,-0.423219,1.74349,77.119447,61.5455)"
   class="fil4 str1" /><ellipse
   style="fill:#cccccc"
   sodipodi:ry="5.5969"
   sodipodi:rx="0.53420001"
   sodipodi:cy="0"
   sodipodi:cx="0"
   cy="0"
   cx="0"
   id="ellipse34"
   ry="5.5969"
   rx="0.53420001"
   transform="matrix(2.40687,0,-0.19858,0.818071,76.822747,63.0913)"
   class="fil6" /><path
   style="fill:#eeeeef;stroke:#000000;stroke-width:0.52920002;stroke-linecap:round;stroke-linejoin:round"
   inkscape:connector-curvature="0"
   id="path36"
   d="m 118.73495,177.693 c 4.9799,-31.8095 -14.267,-56.3509 -14.1326,-92.198 -13.863203,1.3459 -27.726703,2.6919 -41.589903,4.0378 -4.9353,25.977 -25.7524,47.3777 -26.1116,77.1233 0.7053,46.9062 65.008103,62.2065 81.834103,11.0369 z"
   class="fil3 str0" /><path
   style="fill:#333333;stroke:#332c2b;stroke-width:0.52920002;stroke-linecap:round;stroke-linejoin:round"
   inkscape:connector-curvature="0"
   id="path38"
   d="m 74.444847,130.713 c -0.664,-13.5892 -2.142,-27.3264 -6.7601,-41.6344 13.9718,2.9085 25.1381,-0.3035 35.160003,-6.0126 3.4263,2.1932 -5.690503,27.78 -28.399903,47.647 z"
   class="fil2 str3" /><path
   style="fill:#e62129;stroke:#000000;stroke-width:0.52920002;stroke-linecap:round;stroke-linejoin:round"
   inkscape:connector-curvature="0"
   id="path40"
   d="m 76.674347,124.536 c 8.8305,-7.2386 15.6138,-15.783 20.4502,-25.57 -0.588,-2.4281 -2.6013,-2.8024 -5.1743,-1.1229 -3.0436,2.1019 -6.0187,4.2932 -7.8405,7.3354 0.9874,-1.4933 1.9474,-2.5562 3.2296,-3.8129 -2.3934,-0.9168 -3.5957,-0.4294 -5.1812,1.2556 -5.825,7.3049 -6.8383,14.6098 -5.4838,21.9148 z"
   class="fil7 str0" /><path
   style="fill:#f08519;stroke:#000000;stroke-width:0.52920002;stroke-linecap:round;stroke-linejoin:round"
   inkscape:connector-curvature="0"
   id="path42"
   d="m 96.135947,82.5441 c 0.5742,0.3136 1.3437,0.4962 1.9766,0.7361 -5.9232,-1.8787 -9.9141,-5.8828 -12.2483,-11.7099 -2.0371,-5.5254 -5.3187,-7.7156 -11.8444,-1.2113 -1.669,1.4002 -3.3404,3.1314 -4.2513,4.5464 1.7946,-0.6281 4.24,-1.5629 5.1934,-2.5275 -7.4675,6.5386 -41.5402,3.616 -41.1863,33.9181 14.813,-26.1798 44.0172,-7.452 55.3189,-11.9791 4.9997,-2.0064 9.753,-5.5021 12.779003,-8.7645 -0.8681,-1.3503 -2.285903,-0.2342 -3.088103,0.9581 0.4766,-0.5537 0.9074,-1.0313 1.566503,-1.4535 1.1434,-0.4001 2.2649,0.4037 2.3368,1.4535 -8.495103,21.8224 -17.883203,31.7344 -27.457603,39.1672 0.2628,-12.4278 -0.3992,-20.0138 -4.4438,-32.4414 -1.9743,-0.3166 -4.739,-0.7059 -6.6618,-0.925 7.6505,14.1773 7.6451,26.8611 6.664,41.0384 13.3804,-5.1743 25.6731,-20.519 35.264203,-45.4933 1.2413,-4.5214 -0.8151,-7.3675 -6.460703,-6.8643 -1.4355,0.0644 -2.6971,0.8112 -3.4571,1.552 z"
   class="fil0 str0" /><path
   style="fill:#474443;stroke:#474443;stroke-width:0.52920002;stroke-linecap:round;stroke-linejoin:round"
   inkscape:connector-curvature="0"
   id="path44"
   d="m 87.851947,45.1924 c -1.5512,-13.2947 -13.2093,-5.0556 -21.2662,14.5364 10.0704,-17.8429 17.7908,-25.4416 21.2662,-14.5364 z"
   class="fil8 str4" /><path
   style="fill:#474443;stroke:#474443;stroke-width:0.52920002;stroke-linecap:round;stroke-linejoin:round"
   inkscape:connector-curvature="0"
   id="path46"
   d="m 106.02295,48.8937 c -0.852,-6.4593 -4.5089,-9.7368 -10.363903,-4.9128 5.117303,-2.9805 8.477203,-1.0799 10.363903,4.9128 z"
   class="fil8 str4" /><path
   style="fill:none;stroke:#000000;stroke-width:0.52920002;stroke-linecap:round;stroke-linejoin:round"
   inkscape:connector-curvature="0"
   id="path48"
   d="m 134.92895,180.938 c 1.2924,8.5878 -2.8063,15.3312 -5.9557,19.9261"
   class="fil9 str0" /><ellipse
   style="fill:#332c2b;stroke:#332c2b;stroke-width:0.2"
   sodipodi:ry="0.908499"
   sodipodi:rx="0.50468802"
   sodipodi:cy="75.908203"
   sodipodi:cx="92.955803"
   id="ellipse50"
   ry="0.908499"
   rx="0.50468802"
   cy="75.908203"
   cx="92.955803"
   class="fil10 str5"
   transform="translate(-12.422053,0)" /><ellipse
   style="fill:#cccccc;stroke:#000000;stroke-width:0.2"
   sodipodi:ry="5.5969"
   sodipodi:rx="0.53420001"
   sodipodi:cy="0"
   sodipodi:cx="0"
   cy="0"
   cx="0"
   id="ellipse52"
   ry="5.5969"
   rx="0.53420001"
   transform="matrix(-2.93846,-0.89657,-0.0253175,0.977758,98.290947,70.9649)"
   class="fil6 str2" />
</svg>